# Blender 3.3.1
# www.blender.org
mtllib Bandage.mtl
o Cube
v 0.455603 1.500203 -2.005908
v 0.455603 0.053805 -2.005909
v 0.455603 1.500202 -1.144640
v 0.455603 0.053805 -1.144640
v 0.024969 1.500202 -1.575274
v 0.024969 0.053805 -1.575275
v 0.635629 0.053805 -1.575275
v 0.635629 1.500202 -1.575274
v 0.024969 0.053805 -2.184668
v 0.024969 1.500202 -0.962042
v 0.024969 0.053805 -0.962042
v 0.024969 1.500203 -2.184668
v -0.405665 1.500203 -2.005908
v -0.405665 0.053805 -2.005909
v -0.405665 1.500202 -1.144640
v -0.405665 0.053805 -1.144640
v -0.585691 0.053805 -1.575275
v -0.585691 1.500202 -1.575274
v 0.641063 0.053805 -0.993891
v 0.641063 1.500202 -0.993891
v 0.287885 0.053804 -0.657014
v 0.287885 1.500202 -0.657014
v 0.268480 0.053804 -0.515744
v 0.180916 1.500202 -0.515744
v 0.635629 0.053805 -1.575275
v 0.635629 1.500202 -1.575274
v 0.641063 0.053805 -0.993891
v 0.641063 1.500202 -0.993891
v 0.287885 0.053804 -0.657014
v 0.287885 1.500202 -0.657014
v 0.268480 0.053804 -0.515744
v 0.180916 1.500202 -0.515744
vn -0.0000 -0.6301 -0.7765
vn 0.5481 -0.6306 -0.5495
vn 0.7768 -0.6297 -0.0000
vn -0.0000 -1.0000 -0.0000
vn 0.5481 0.6306 -0.5495
vn -0.0000 0.6301 -0.7765
vn -0.0000 1.0000 -0.0000
vn 0.7768 0.6297 -0.0000
vn 0.5498 -0.6312 0.5470
vn -0.0000 -0.6289 0.7775
vn 0.5498 0.6312 0.5470
vn -0.0000 0.6289 0.7775
vn -0.7768 -0.6297 -0.0000
vn -0.5481 -0.6306 -0.5495
vn -0.5481 0.6306 -0.5495
vn -0.7768 0.6297 -0.0000
vn -0.5498 -0.6312 0.5470
vn -0.5498 0.6312 0.5470
vn 1.0000 -0.0000 -0.0093
vn 0.9211 -0.0000 0.3893
vn 0.8168 0.0141 0.5768
vn 0.9125 0.0276 0.4081
vn -1.0000 -0.0000 0.0093
vn -0.9211 -0.0000 -0.3893
vn -0.8168 -0.0141 -0.5768
vn -0.9125 -0.0276 -0.4081
vt 0.897676 0.772927
vt 0.105111 0.502318
vt 0.897676 0.772927
vt 0.105799 0.933566
vt 0.250038 0.501631
vt 0.897676 0.233275
vt 0.897676 0.233275
vt 0.250726 0.932879
vt 0.799226 0.496851
vt 0.799226 0.496851
vt 0.963067 0.503101
vt 0.178262 0.933223
vt 0.277795 0.351028
vt 0.177575 0.501974
vt 0.963067 0.503101
vt 0.277795 0.715057
vt 0.799226 0.878684
vt 0.033335 0.933910
vt 0.322502 0.501287
vt 0.799226 0.112612
vt 0.799226 0.112612
vt 0.323189 0.932535
vt 0.799226 0.878684
vt 0.032648 0.502662
vt 0.670583 0.760427
vt 0.105111 0.502318
vt 0.670583 0.760427
vt 0.105799 0.933566
vt 0.250038 0.501631
vt 0.670583 0.220775
vt 0.670583 0.220775
vt 0.250726 0.932879
vt 0.605191 0.490601
vt 0.178262 0.933223
vt 0.177575 0.501974
vt 0.605191 0.490601
vt 0.192971 0.351028
vt 0.222918 0.502352
vt 0.192971 0.715057
vt 0.222918 0.887827
vt 0.170871 0.502352
vt 0.170871 0.887827
vt 0.149045 0.502352
vt 0.149045 0.887827
vt 0.277795 0.351028
vt 0.277795 0.715057
vt 0.192971 0.351028
vt 0.222918 0.502352
vt 0.192971 0.715057
vt 0.222918 0.887827
vt 0.170871 0.502352
vt 0.170871 0.887827
vt 0.149045 0.502352
vt 0.149045 0.887827
s 1
usemtl Material.046
f 9/17/1 2/3/2 7/11/3 6/10/4
f 1/1/5 12/23/6 5/9/7 8/15/8
f 6/10/4 7/11/3 4/7/9 11/21/10
f 7/12/3 8/14/8 3/5/11 4/8/9
f 9/18/1 12/24/6 1/2/5 2/4/2
f 2/4/2 1/2/5 8/14/8 7/12/3
f 4/8/9 3/5/11 10/19/12 11/22/10
f 8/15/8 5/9/7 10/20/12 3/6/11
f 9/17/1 6/10/4 17/33/13 14/27/14
f 13/25/15 18/36/16 5/9/7 12/23/6
f 6/10/4 11/21/10 16/31/17 17/33/13
f 17/34/13 16/32/17 15/29/18 18/35/16
f 9/18/1 14/28/14 13/26/15 12/24/6
f 14/28/14 17/34/13 18/35/16 13/26/15
f 16/32/17 11/22/10 10/19/12 15/29/18
f 18/36/16 15/30/18 10/20/12 5/9/7
f 7/13/19 8/16/19 20/39/20 19/37/20
f 19/38/20 20/40/20 22/42/21 21/41/21
f 21/41/21 22/42/21 24/44/22 23/43/22
f 25/45/23 27/47/24 28/49/24 26/46/23
f 27/48/24 29/51/25 30/52/25 28/50/24
f 29/51/25 31/53/26 32/54/26 30/52/25
